<?xml version="1.0" standalone="no"?><!DOCTYPE svg PUBLIC "-//W3C//DTD SVG 1.1//EN" "http://www.w3.org/Graphics/SVG/1.1/DTD/svg11.dtd"><svg t="1580385960792" class="icon" viewBox="0 0 1024 1024" version="1.1" xmlns="http://www.w3.org/2000/svg" p-id="1682" width="200" height="200" xmlns:xlink="http://www.w3.org/1999/xlink"><defs><style type="text/css"></style></defs><path d="M128 256c-25.685333 0-42.666667 16.981333-42.666667 42.666667v42.666666h853.333334V298.666667c0-25.685333-16.981333-42.666667-42.666667-42.666667zM42.666667 384c-25.685333 0-42.666667 16.981333-42.666667 42.666667v170.666666c0 25.685333 16.981333 42.666667 42.666667 42.666667h938.666666c25.685333 0 42.666667-16.981333 42.666667-42.666667v-170.666666c0-25.685333-16.981333-42.666667-42.666667-42.666667z m85.333333 64h85.333333v128H128z m170.666667 0h85.333333v128H298.666667z m170.666666 0h85.333334v128h-85.333334z m170.666667 0h85.333333v128h-85.333333z m170.666667 0h85.333333v128h-85.333333zM85.333333 682.666667v42.666666c0 25.685333 16.981333 42.666667 42.666667 42.666667h768c25.685333 0 42.666667-16.981333 42.666667-42.666667v-42.666666z" fill="#0061b0" p-id="1683"></path></svg>